# xmcd CD database file
#
# Track frame offsets:
#	150
#	33445
#	53972
#	82870
#	102510
#	127205
#	145737
#	155237
#	180340
#	201290
#	213552
#
# Disc length: 2898 seconds
#
# Revision: 0
# Processed by: cddbd v1.5.1PL0 Copyright (c) Steve Scherf et al.
# Submitted via: CDex 1.51
#
DISCID=a00b500b
DTITLE=Pig In A Can - A New Perspective On The Blues
DYEAR=2001
DGENRE=Jazz
TTITLE0=Talkin' Tupelo Blues
TTITLE1=Slow Down Train
TTITLE2=Out To California
TTITLE3=Long Long Time
TTITLE4=Bring Me My Shotgun
TTITLE5=Highway 49 - Wooden Spoon
TTITLE6=Opium Harvest
TTITLE7=Slow Walkin' Man
TTITLE8=Coal Black Mare
TTITLE9=Lester Parker's Farm
TTITLE10=The Pledge
EXTD=YEAR: 2001
EXTT0=
EXTT1=
EXTT2=
EXTT3=
EXTT4=
EXTT5=
EXTT6=
EXTT7=
EXTT8=
EXTT9=
EXTT10=
PLAYORDER=
